<svg>
  <symbol id="ig" viewBox="0 0 144.2 144.2">
    <path d="M72.1 0c-19.6 0-22 .1-29.7.4S29.5 2 24.9 3.8a34.4 34.4 0 0 0-12.8 8.3 34.4 34.4 0 0 0-8.3 12.8C2 29.5.8 34.7.4 42.4S0 52.5 0 72.1s.1 22 .4 29.7 1.6 12.9 3.4 17.5a35.2 35.2 0 0 0 8.3 12.8 34.4 34.4 0 0 0 12.8 8.3 51.3 51.3 0 0 0 17.5 3.3c7.7.4 10.1.5 29.7.5s22-.1 29.7-.5a51.3 51.3 0 0 0 17.5-3.3 35.2 35.2 0 0 0 12.8-8.3 34.4 34.4 0 0 0 8.3-12.8 51.3 51.3 0 0 0 3.3-17.5c.4-7.7.5-10.1.5-29.7s-.1-22-.5-29.7a51.3 51.3 0 0 0-3.3-17.5 34.4 34.4 0 0 0-8.3-12.8 34.4 34.4 0 0 0-12.8-8.3c-4.6-1.8-9.8-3-17.5-3.4S91.7 0 72.1 0zm0 13c19.2 0 21.5.1 29.1.4s10.9 1.5 13.4 2.5a22.1 22.1 0 0 1 8.3 5.4 22.1 22.1 0 0 1 5.4 8.3c1 2.5 2.2 6.3 2.5 13.4s.4 9.8.4 29.1-.1 21.5-.5 29.1-1.5 10.9-2.5 13.4a23.9 23.9 0 0 1-13.7 13.7c-2.5 1-6.4 2.2-13.4 2.5s-9.9.4-29.2.4-21.5-.1-29.2-.5-10.9-1.5-13.4-2.5a22.1 22.1 0 0 1-8.3-5.4 22.1 22.1 0 0 1-5.4-8.3c-1-2.5-2.2-6.4-2.5-13.4s-.4-9.9-.4-29.1.1-21.5.4-29.2 1.5-10.9 2.5-13.4a22.1 22.1 0 0 1 5.4-8.3 21 21 0 0 1 8.3-5.4c2.5-1 6.3-2.2 13.3-2.5s9.9-.4 29.2-.4zm0 22.1a37 37 0 1 0 37 37 37 37 0 0 0-37-37zm0 61a24 24 0 1 1 24-24 23.9 23.9 0 0 1-24 24zm47.1-62.5a8.7 8.7 0 1 1-8.6-8.6 8.7 8.7 0 0 1 8.6 8.6z"/>
  </symbol>
  <symbol id="profile" viewBox="0 0 447.4 1149.8">
    <path fill="#231f20" fill-rule="evenodd" d="M438.3 401.5s-107.4-77.4-106.1-94.6 9.3-24.1 7.7-30.2S248.2 94.6 227.8 99.8C254.3 24.7 138.2-12.1 0 3.6v1146.2h313.4C324.3 1013.9 163.5 984 163.5 984c-9.1-46 24.3-40 24.3-40 88 120.2 153.1 1.7 151.6 86.9 91.5-56.4 86.2-146 49.9-209.2-18-31.3 43.1-126 2.5-164.1 31.3-26.3 3-75.4 3-75.4 22.7-19.5 17.9-40.5 17.9-40.5-15.7-8.5-26-56.2-26-56.2 92.8-49.6 51.6-84 51.6-84z"/>
    <path fill="none" d="M402.3 390.5l-16.3-22"/>
    <path fill="#30bf97" d="M328.2 741.2a78.5 78.5 0 0 0-31.4-13.1 76.8 76.8 0 0 1 27.2 27.1 79.3 79.3 0 0 1 6.8 15.5 75.6 75.6 0 0 1-4 54.3 86.1 86.1 0 0 0-12.7-36.8 88.4 88.4 0 0 0-42.1-35.9c5.1-7.3 15.8-10.1 23.8-6.2q-23.4-28.1-46.9-56c2.6 2.9 28.3-11.1 34.3-10.8 12 .7 26.4 13.5 34.7 21.2a123.1 123.1 0 0 1 16.7 19.3 110.9 110.9 0 0 1 19.3 51.9 78.3 78.3 0 0 0-25.7-30.5zM354.1 978c3-14.8-7.4-29.3-19.8-37.8s-27.2-13.2-39.7-21.6a55.9 55.9 0 0 1-14.9-14.6c-4.6-6.9-7.2-14.7-5.8-22.8a61.7 61.7 0 0 0 2.9 32.7c6.8 18.9 22 35 41.3 41-16.3 8.5-37 7.4-52.6-2.1a50.5 50.5 0 0 1-6-4.3c-15.9-13.3-22.8-36.5-16.7-56.4 5-16 17.5-32.5 10.3-47.7-4.7-10-16.2-14.4-25.8-19.7a88.2 88.2 0 0 1-14.3-9.8c-23.7-20.2-37.1-52.6-33.1-83.6a72.7 72.7 0 0 0 32.6 55.5c-8.1-6-16.4-46.5-10.3-54.1 7.6-9.4 19.1 7.8 28.1 17.6a28.7 28.7 0 0 0 5.6 5.2c14.1 8.8 30.5 14.4 42.6 25.7s18.3 26.3 25.4 41c2 4.2 4.1 8.3 6.4 12.2 13.5 23.9 34.3 43.1 47.3 67.2s16.4 57.5-3.5 76.4zM382 624a36.5 36.5 0 0 0-17.9-4.1 32.9 32.9 0 0 0-17.7 5.4c-9.5 6.3-15.1 16.9-23.5 24.6a49 49 0 0 1-58.1 6.2 55.8 55.8 0 0 1-7.8-5.7l1.1-4.3a44 44 0 0 0 16.8 3.6c13.2.4 26.7-5 34.9-15.6a41.1 41.1 0 0 1-17.2 4.2 42 42 0 0 1-25.2-7.5c9.4 3.9 20.5.1 28.4-6.4 13.8-11.5 25.7-46.1 47.3-44.8 6.8.5 12.6 5.2 17.7 11.6a113 113 0 0 1 8.1 11.9c4.8 8 9 16.1 13.1 20.9z"/>
  </symbol>
  <symbol id="map" viewBox="0 0 1150.9 614.1">
    <path fill="none" stroke="#012623" stroke-dasharray="56" stroke-miterlimit="10" stroke-width="22" d="M75.3 261.1c22.7-46.5 47.1-95 89.2-125.1s107.6-34.3 141.2 5.1c25.9 30.4 24.8 75.8 13.2 114s-32.3 73.4-41.8 112.2-5.3 85 25.1 110.9c34.3 29 89.2 19.8 123.9-8.9s53.7-71.5 70.6-113.2 33.6-85.1 65.4-116.8 83.7-48.5 122.8-26.2c42.8 24.4 52.3 83 43.2 131.4s-31.6 94.1-34.9 143.3 22.2 106.5 70.8 114.4c44.9 7.3 85.1-31 104.4-72.1s26.1-87.8 49.2-126.9 72.6-69.6 113.5-50"/>
    <path fill="#012623" d="M134 109.8a78.5 78.5 0 1 0-111 111l55.5 55.5 55.5-55.5a78.6 78.6 0 0 0 0-111zm-55.5 97a41.5 41.5 0 1 1 41.4-41.5 41.5 41.5 0 0 1-41.4 41.5zm351.8 92.5a78.4 78.4 0 1 0-110.9 110.9l55.4 55.5 55.5-55.5a78.3 78.3 0 0 0 0-110.9zm-55.5 96.9a41.5 41.5 0 1 1 41.5-41.4 41.4 41.4 0 0 1-41.5 41.4zM711.6 23a78.5 78.5 0 0 0-110.9 111l55.4 55.5 55.5-55.5a78.4 78.4 0 0 0 0-111zm-55.5 96.9a41.5 41.5 0 1 1 41.5-41.4 41.4 41.4 0 0 1-41.5 41.4zM831.6 405a78.5 78.5 0 1 0-111 111l55.5 55.4 55.5-55.4a78.6 78.6 0 0 0 0-111zm-55.5 96.9a41.5 41.5 0 1 1 41.5-41.4 41.4 41.4 0 0 1-41.5 41.4zM1128 188.3h-.1a78.5 78.5 0 0 0-110.9 111l55.5 55.5 55.5-55.5a78.6 78.6 0 0 0 0-111zm-55.5 96.9a41.5 41.5 0 1 1 41.4-41.4 41.4 41.4 0 0 1-41.4 41.4z"/>
  </symbol>
  <symbol id="fb" viewBox="0 0 145.1 144.2">
    <path d="M145.1 72.5a72.6 72.6 0 1 0-83.9 71.7V93.5H42.8v-21h18.4V56.6c0-18.2 10.8-28.3 27.4-28.3a105.4 105.4 0 0 1 16.2 1.5v17.8h-9.1c-9 0-11.8 5.6-11.8 11.3v13.6H104l-3.2 21H83.9v50.7a72.7 72.7 0 0 0 61.2-71.7z"/>
  </symbol>
  <symbol id="trees" viewBox="0 0 663.4 549.1">
    <path fill="#30bf97" d="M112.9 0h39.6l-12.9 489.5h-13.8L112.9 0z"/>
    <path fill="#30bf97" d="M265.4 193.2l-132.7-35.8L0 193.2v5.8l132.7 35.8L265.4 199v-5.8z"/>
    <path fill="#30bf97" d="M249.4 231.9l-116.7-35.8-116.8 35.8v5.8l116.8 35.8 116.7-35.8v-5.8z"/>
    <path fill="#30bf97" d="M232.1 271l-99.4-30.5L33.3 271v5l99.4 30.4 99.4-30.4v-5z"/>
    <path fill="#30bf97" d="M216.8 307.7l-84.1-30.5-84.1 30.5v5l84.1 30.4 84.1-30.4v-5z"/>
    <path fill="#30bf97" d="M197.3 344.4l-64.6-30.5-64.6 30.5v4.9l64.6 30.5 64.6-30.5v-4.9z"/>
    <path fill="#30bf97" d="M182.2 381.1l-49.5-30.5-49.5 30.5v4.9l49.5 30.5 49.5-30.5v-4.9z"/>
    <path fill="#30bf97" d="M182.2 417.8l-49.5-30.5-49.5 30.5v4.9l49.5 30.5 49.5-30.5v-4.9z"/>
    <path fill="#30bf97" d="M166.3 454.5L132.7 424 99 454.5v4.9l33.7 30.5 33.6-30.5v-4.9z"/>
    <path fill="#30bf97" d="M166.3 491.2l-33.6-30.5L99 491.2v4.9l33.7 30.5 33.6-30.5v-4.9z"/>
    <path fill="#30bf97" d="M160.8 529l-28.1-17.3-28.1 17.3v2.8l28.1 17.3 28.1-17.3V529z"/>
    <path fill="#012623" d="M245.6 0h39.6l-12.9 489.5h-13.8L245.6 0z"/>
    <path fill="#012623" d="M398.1 193.2l-132.7-35.8-132.7 35.8v5.8l132.7 35.8L398.1 199v-5.8z"/>
    <path fill="#012623" d="M382.1 231.9l-116.7-35.8-116.8 35.8v5.8l116.8 35.8 116.7-35.8v-5.8z"/>
    <path fill="#012623" d="M364.7 271l-99.3-30.5L166 271v5l99.4 30.4 99.3-30.4v-5z"/>
    <path fill="#012623" d="M349.5 307.7l-84.1-30.5-84.1 30.5v5l84.1 30.4 84.1-30.4v-5z"/>
    <path fill="#012623" d="M330 344.4l-64.6-30.5-64.6 30.5v4.9l64.6 30.5 64.6-30.5v-4.9z"/>
    <path fill="#012623" d="M314.9 381.1l-49.5-30.5-49.5 30.5v4.9l49.5 30.5 49.5-30.5v-4.9z"/>
    <path fill="#012623" d="M314.9 417.8l-49.5-30.5-49.5 30.5v4.9l49.5 30.5 49.5-30.5v-4.9z"/>
    <path fill="#012623" d="M299 454.5L265.4 424l-33.7 30.5v4.9l33.7 30.5 33.6-30.5v-4.9z"/>
    <path fill="#012623" d="M299 491.2l-33.6-30.5-33.7 30.5v4.9l33.7 30.5 33.6-30.5v-4.9z"/>
    <path fill="#012623" d="M293.5 529l-28.1-17.3-28.1 17.3v2.8l28.1 17.3 28.1-17.3V529z"/>
    <path fill="#30bf97" d="M378.3 0h39.5L405 489.5h-13.8L378.3 0z"/>
    <path fill="#30bf97" d="M530.8 193.2l-132.7-35.8-132.7 35.8v5.8l132.7 35.8L530.8 199v-5.8z"/>
    <path fill="#30bf97" d="M514.8 231.9l-116.7-35.8-116.8 35.8v5.8l116.8 35.8 116.7-35.8v-5.8z"/>
    <path fill="#30bf97" d="M497.4 271l-99.3-30.5-99.4 30.5v5l99.4 30.4 99.3-30.4v-5z"/>
    <path fill="#30bf97" d="M482.2 307.7l-84.1-30.5-84.2 30.5v5l84.2 30.4 84.1-30.4v-5z"/>
    <path fill="#30bf97" d="M462.7 344.4l-64.6-30.5-64.7 30.5v4.9l64.7 30.5 64.6-30.5v-4.9z"/>
    <path fill="#30bf97" d="M447.6 381.1l-49.5-30.5-49.5 30.5v4.9l49.5 30.5 49.5-30.5v-4.9z"/>
    <path fill="#30bf97" d="M447.6 417.8l-49.5-30.5-49.5 30.5v4.9l49.5 30.5 49.5-30.5v-4.9z"/>
    <path fill="#30bf97" d="M431.7 454.5L398.1 424l-33.7 30.5v4.9l33.7 30.5 33.6-30.5v-4.9z"/>
    <path fill="#30bf97" d="M431.7 491.2l-33.6-30.5-33.7 30.5v4.9l33.7 30.5 33.6-30.5v-4.9z"/>
    <path fill="#30bf97" d="M426.2 529l-28.1-17.3L370 529v2.8l28.1 17.3 28.1-17.3V529z"/>
    <path fill="#012623" d="M511 0h39.5l-12.8 489.5h-13.8L511 0z"/>
    <path fill="#012623" d="M663.4 193.2l-132.6-35.8-132.7 35.8v5.8l132.7 35.8L663.4 199v-5.8z"/>
    <path fill="#012623" d="M647.5 231.9l-116.7-35.8L414 231.9v5.8l116.8 35.8 116.7-35.8v-5.8z"/>
    <path fill="#012623" d="M630.1 271l-99.3-30.5-99.4 30.5v5l99.4 30.4 99.3-30.4v-5z"/>
    <path fill="#012623" d="M614.9 307.7l-84.1-30.5-84.2 30.5v5l84.2 30.4 84.1-30.4v-5z"/>
    <path fill="#012623" d="M595.4 344.4l-64.6-30.5-64.7 30.5v4.9l64.7 30.5 64.6-30.5v-4.9z"/>
    <path fill="#012623" d="M580.2 381.1l-49.4-30.5-49.5 30.5v4.9l49.5 30.5 49.4-30.5v-4.9z"/>
    <path fill="#012623" d="M580.2 417.8l-49.4-30.5-49.5 30.5v4.9l49.5 30.5 49.4-30.5v-4.9z"/>
    <path fill="#012623" d="M564.4 454.5L530.8 424l-33.7 30.5v4.9l33.7 30.5 33.6-30.5v-4.9z"/>
    <path fill="#012623" d="M564.4 491.2l-33.6-30.5-33.7 30.5v4.9l33.7 30.5 33.6-30.5v-4.9z"/>
    <path fill="#012623" d="M558.9 529l-28.1-17.3-28.1 17.3v2.8l28.1 17.3 28.1-17.3V529z"/>
  </symbol>
  <symbol id="hamburger" viewBox="0 0 299.6 272.8">
    <rect width="299.6" height="53.59" fill="#012623" rx="26.8"/>
    <rect width="299.6" height="53.59" y="109.6" fill="#012623" rx="26.8"/>
    <rect width="299.6" height="53.59" y="219.2" fill="#012623" rx="26.8"/>
  </symbol>
  <symbol id="be" viewBox="0 0 174 109">
    <path d="M0 0v107h51.9a54.3 54.3 0 0 0 14-1.8A37.2 37.2 0 0 0 78 99.7a27.5 27.5 0 0 0 8.5-9.7 29.6 29.6 0 0 0 3.1-14.1c0-6.6-1.6-12.4-4.8-17.1s-8.1-8.1-14.7-10A27 27 0 0 0 81 40a23.9 23.9 0 0 0 3.7-13.5 29.4 29.4 0 0 0-2.5-12.6 20.5 20.5 0 0 0-7-8.1 27.6 27.6 0 0 0-10.8-4.4A60 60 0 0 0 50.5 0zm113.6 7.2v10.5H157V7.2zm-90 11h22a30.8 30.8 0 0 1 6.1.6 14.6 14.6 0 0 1 5.2 1.8 10.1 10.1 0 0 1 3.6 3.8 12.3 12.3 0 0 1 1.3 6.1c0 4.5-1.3 7.8-4 9.7a17.3 17.3 0 0 1-10.4 3H23.6zm112.7 9.1a40.4 40.4 0 0 0-16.2 3.2 39.7 39.7 0 0 0-12.6 8.6 40.2 40.2 0 0 0-8.1 13 45.2 45.2 0 0 0-2.8 16.2 48.4 48.4 0 0 0 2.7 16.5 38.8 38.8 0 0 0 7.9 13 36 36 0 0 0 12.5 8.3 46.3 46.3 0 0 0 16.6 2.9c8.7 0 16.2-2 22.4-6s10.8-10.7 13.8-20h-18.7c-.8 2.4-2.6 4.7-5.7 6.9a19.3 19.3 0 0 1-11.1 3.2c-6 0-10.6-1.6-13.8-4.7s-5.3-8.9-5.3-15h55.9a55.1 55.1 0 0 0-1.4-17.3 43.1 43.1 0 0 0-6.8-14.7 34.2 34.2 0 0 0-12.1-10.2 36.6 36.6 0 0 0-17.2-3.9zm-.7 16.1c5.2 0 9.5 1.5 12.1 4.3a21.1 21.1 0 0 1 4.9 12.3h-34.7a28.5 28.5 0 0 1 1-5.1 13.9 13.9 0 0 1 2.9-5.5 16.4 16.4 0 0 1 5.3-4.3 19.5 19.5 0 0 1 8.5-1.7zm-112 15.9h25.6c5.1 0 9.2 1.2 12.3 3.5s4.6 6.3 4.6 11.8a14.3 14.3 0 0 1-1.4 7 11.1 11.1 0 0 1-3.8 4.2 14.7 14.7 0 0 1-5.6 2.3 28.4 28.4 0 0 1-6.6.7H23.6z"/>
  </symbol>
  <symbol id="writing" viewBox="0 0 555.4 726.3">
    <path fill="#30bf97" d="M497.1 494.4c-42.8 31-109.8 28.4-143.2-12.6-29.3-36.1-26.4-87.6-26.3-134.1s-8.3-100.6-48.6-123.9-88.1-5.2-133.2-7.1c-59.4-2.5-115.4-43.3-136-99.1C-6 74.7-1.6 35.2 15.3.9h332.5c13.2 29.6 31.1 57.3 50.5 83.4 31.7 42.3 67.8 81.2 97.9 124.6s54.5 92.6 58.7 145.3-15 109.2-57.8 140.2z"/>
    <path fill="#012623" d="M114.2.9h28.1v313.72h-28.1zm41.8 0h28.1v313.72H156zm41.8 0h28.1v313.72h-28.1zm-11.9 437.5l-15.8 40.9-15.9-40.9h31.7zm40-114.1l-40 103.1h-31.7l-40-103.1h111.7zm61.6 18.6c-.4-13.5-.7-27-.6-40.7.5-96.3 15.7-194.8 61.3-279.2 4.2-7.8 8.7-15.5 13.4-23h-55.7c-2.1 26.6-4.3 53.3-6.4 79.9l-2.1 26.9c-.6-2.5-1.1-5.1-1.7-7.7-4.7-22.3-9.5-44.5-14.2-66.8 3.2 55.3-19.9 108.6-25.5 163.7-2.4 23.3-7.4 81.7 16.4 100.5-3.6 101.4 8.5 203.9 58.3 291.7-37.2-76.2-47-160.7-43.2-245.3z"/>
    <path fill="#012623" d="M353 205.3c19.6-11.6 31.7-34.5 30.9-57.1a14.2 14.2 0 0 1-9 11.4c-6.9 2.4-15.4-1.8-17.7-8.7s.4-12.8 2.7-18.7Q380.2 81.1 400.2 30c-2.8 5.8-5.9 12-11.3 15.6s-13.9 3.6-17.5-1.9c-4.7-7.3 2.2-16.4 7.9-23A84.3 84.3 0 0 0 392.4 0H364a415.7 415.7 0 0 0-24.6 55.1c-8.1 28.9-16.1 57.9-22.8 87.1-8.5 50.6-9.9 102.7-6.7 154.5 10.5-6.1 19.6-16.1 26.9-24.7a151.3 151.3 0 0 0 17.7-25.8c4.4-8 6.6-22 12-28.8-3.6 4.5-7.5 9.3-13 11.3s-12.8 0-14.5-5.5c-2.5-7.9 6.9-13.7 14-17.9zm170 464.8a87.6 87.6 0 0 0-48 56.1v-56.1a9.4 9.4 0 1 0-6.5 0v56.1a87.6 87.6 0 0 0-48-56.1 87.4 87.4 0 0 0 35.3-70.2c0-30.8-3.1-58-17.5-73.6V1.9h66.9v524.4c-14.4 15.6-17.5 42.8-17.5 73.6a87.4 87.4 0 0 0 35.3 70.2z"/>
  </symbol>
</svg>
