<svg xmlns="http://www.w3.org/2000/svg" width="174" height="109" viewBox="0 0 174 109"><path d="M0 0v107h51.9a54.3 54.3 0 0 0 14-1.8A37.2 37.2 0 0 0 78 99.7a27.5 27.5 0 0 0 8.5-9.7 29.6 29.6 0 0 0 3.1-14.1c0-6.6-1.6-12.4-4.8-17.1s-8.1-8.1-14.7-10A27 27 0 0 0 81 40a23.9 23.9 0 0 0 3.7-13.5 29.4 29.4 0 0 0-2.5-12.6 20.5 20.5 0 0 0-7-8.1 27.6 27.6 0 0 0-10.8-4.4A60 60 0 0 0 50.5 0zm113.6 7.2v10.5H157V7.2zm-90 11h22a30.8 30.8 0 0 1 6.1.6 14.6 14.6 0 0 1 5.2 1.8 10.1 10.1 0 0 1 3.6 3.8 12.3 12.3 0 0 1 1.3 6.1c0 4.5-1.3 7.8-4 9.7a17.3 17.3 0 0 1-10.4 3H23.6zm112.7 9.1a40.4 40.4 0 0 0-16.2 3.2 39.7 39.7 0 0 0-12.6 8.6 40.2 40.2 0 0 0-8.1 13 45.2 45.2 0 0 0-2.8 16.2 48.4 48.4 0 0 0 2.7 16.5 38.8 38.8 0 0 0 7.9 13 36 36 0 0 0 12.5 8.3 46.3 46.3 0 0 0 16.6 2.9c8.7 0 16.2-2 22.4-6s10.8-10.7 13.8-20h-18.7c-.8 2.4-2.6 4.7-5.7 6.9a19.3 19.3 0 0 1-11.1 3.2c-6 0-10.6-1.6-13.8-4.7s-5.3-8.9-5.3-15h55.9a55.1 55.1 0 0 0-1.4-17.3 43.1 43.1 0 0 0-6.8-14.7 34.2 34.2 0 0 0-12.1-10.2 36.6 36.6 0 0 0-17.2-3.9zm-.7 16.1c5.2 0 9.5 1.5 12.1 4.3a21.1 21.1 0 0 1 4.9 12.3h-34.7a28.5 28.5 0 0 1 1-5.1 13.9 13.9 0 0 1 2.9-5.5 16.4 16.4 0 0 1 5.3-4.3 19.5 19.5 0 0 1 8.5-1.7zm-112 15.9h25.6c5.1 0 9.2 1.2 12.3 3.5s4.6 6.3 4.6 11.8a14.3 14.3 0 0 1-1.4 7 11.1 11.1 0 0 1-3.8 4.2 14.7 14.7 0 0 1-5.6 2.3 28.4 28.4 0 0 1-6.6.7H23.6z"/></svg>