<svg xmlns="http://www.w3.org/2000/svg" width="144.2" height="144.2" viewBox="0 0 144.2 144.2"><path d="M72.1 0c-19.6 0-22 .1-29.7.4S29.5 2 24.9 3.8a34.4 34.4 0 0 0-12.8 8.3 34.4 34.4 0 0 0-8.3 12.8C2 29.5.8 34.7.4 42.4S0 52.5 0 72.1s.1 22 .4 29.7 1.6 12.9 3.4 17.5a35.2 35.2 0 0 0 8.3 12.8 34.4 34.4 0 0 0 12.8 8.3 51.3 51.3 0 0 0 17.5 3.3c7.7.4 10.1.5 29.7.5s22-.1 29.7-.5a51.3 51.3 0 0 0 17.5-3.3 35.2 35.2 0 0 0 12.8-8.3 34.4 34.4 0 0 0 8.3-12.8 51.3 51.3 0 0 0 3.3-17.5c.4-7.7.5-10.1.5-29.7s-.1-22-.5-29.7a51.3 51.3 0 0 0-3.3-17.5 34.4 34.4 0 0 0-8.3-12.8 34.4 34.4 0 0 0-12.8-8.3c-4.6-1.8-9.8-3-17.5-3.4S91.7 0 72.1 0zm0 13c19.2 0 21.5.1 29.1.4s10.9 1.5 13.4 2.5a22.1 22.1 0 0 1 8.3 5.4 22.1 22.1 0 0 1 5.4 8.3c1 2.5 2.2 6.3 2.5 13.4s.4 9.8.4 29.1-.1 21.5-.5 29.1-1.5 10.9-2.5 13.4a23.9 23.9 0 0 1-13.7 13.7c-2.5 1-6.4 2.2-13.4 2.5s-9.9.4-29.2.4-21.5-.1-29.2-.5-10.9-1.5-13.4-2.5a22.1 22.1 0 0 1-8.3-5.4 22.1 22.1 0 0 1-5.4-8.3c-1-2.5-2.2-6.4-2.5-13.4s-.4-9.9-.4-29.1.1-21.5.4-29.2 1.5-10.9 2.5-13.4a22.1 22.1 0 0 1 5.4-8.3 21 21 0 0 1 8.3-5.4c2.5-1 6.3-2.2 13.3-2.5s9.9-.4 29.2-.4zm0 22.1a37 37 0 1 0 37 37 37 37 0 0 0-37-37zm0 61a24 24 0 1 1 24-24 23.9 23.9 0 0 1-24 24zm47.1-62.5a8.7 8.7 0 1 1-8.6-8.6 8.7 8.7 0 0 1 8.6 8.6z"/></svg>