<svg xmlns="http://www.w3.org/2000/svg" width="1150.9" height="614.1" class="map"><path fill="none" stroke="#012623" stroke-dasharray="56" stroke-miterlimit="10" stroke-width="22" d="M1076 261c-23-46-47-95-90-125s-107-34-141 5c-26 31-25 76-13 114s32 74 42 112 5 85-25 111c-35 29-90 20-124-9s-54-71-71-113-33-85-65-117-84-48-123-26c-43 24-52 83-43 132s31 94 35 143-23 106-71 114c-45 8-85-31-105-72s-26-88-49-127-72-69-113-50"/><path id="mars" d="M1017 110a79 79 0 0 1 111 111l-55 55-56-55a78 78 0 0 1 0-111zm56 97a42 42 0 1 0-42-42 41 41 0 0 0 42 42z"/><path id="canada" d="M721 299a79 79 0 1 1 111 111l-56 56-55-56a79 79 0 0 1 0-111zm55 97a42 42 0 1 0-41-41 41 41 0 0 0 41 41z"/><path id="us" d="M439 23a79 79 0 1 1 111 111l-55 56-56-56a79 79 0 0 1 0-111zm56 97a42 42 0 1 0-42-41 41 41 0 0 0 42 41z"/><path id="armenia" d="M319 405a79 79 0 0 1 111 111l-55 55-56-55a78 78 0 0 1 0-111zm56 97a42 42 0 1 0-42-42 41 41 0 0 0 42 42z"/><path id="syria" d="M23 188a79 79 0 0 1 111 111l-55 56-56-56a78 78 0 0 1 0-111zm56 97a42 42 0 1 0-42-41 41 41 0 0 0 42 41z"/></svg>