<svg id="Layer_1" data-name="Layer 1" xmlns="http://www.w3.org/2000/svg" xmlns:xlink="http://www.w3.org/1999/xlink" width="254.5" height="440.7" viewBox="0 0 254.5 440.7"><defs><linearGradient id="linear-gradient" y1="133.68" x2="240.5" y2="133.68" gradientUnits="userSpaceOnUse"><stop offset="0" stop-color="#207364"/><stop offset="1" stop-color="#30bf97"/></linearGradient><linearGradient id="linear-gradient-2" x1="14.01" y1="307.05" x2="254.51" y2="307.05" xlink:href="#linear-gradient"/></defs><path d="M37.9,120.8c30.9,11.2,67.1.8,98.8-.7a92.4,92.4,0,0,1,19.7.6c21.5,3,25.5,18.6,25.3,37.5A257.6,257.6,0,0,1,156,222.8c-6.7,11.3-14.6,22.8-24.7,30.9l8.9,13.7c29.4-19,68.2-21.6,100.3-7.3-23.2-14.8-51.8-20.1-78.9-15.8,32-45.8,58.3-132.7,31.2-182.3S94.2-12.4,40.7,6.5c-29.9,11-46.2,36-39,67.9C6,95.5,17.1,113.1,37.9,120.8Zm54.2-12.5C88.4,90.7,81.3,74,72.5,58.4,87.9,47.2,103,35.5,116.4,22c16.5,5.1,32.3,13.7,44.8,25.6l-3.9.5c-17.6,2.6-35.1,7.2-52.2,11.8l6.7,9.5C120,80.9,128,92.7,137,103.6,122.6,104.3,107,106.7,92.1,108.3Zm89.4-32.1c5,13,6.7,27.9,6,43.4a35.8,35.8,0,0,0-5.1-5.2c-10.2-8.5-23.9-11-39.2-10.9a100,100,0,0,0-12.1-33.8,124.5,124.5,0,0,0,16.5-6.8,106.5,106.5,0,0,0,18-10.9A85.3,85.3,0,0,1,181.5,76.2ZM19.4,44.6c4.9-11.1,15.7-18.6,27-22.8,20.1-7.2,42.2-6.8,62.8-1.7L105,21.8C85.5,30,67.6,41.4,50.8,54.1l4,6.4c10.5,16.2,20.8,32.8,32.6,48.2-23.3,2.1-44.8,1.4-58.2-12.8-6.5-7.2-9.9-16.6-11.8-26S16,52.4,19.4,44.6Z" fill="url(#linear-gradient)"/><path d="M252.8,366.3c-4.3-21.1-15.4-38.6-36.2-46.4-30.9-11.2-67.1-.8-98.8.8a98.1,98.1,0,0,1-19.6-.7c-21.6-3-25.6-18.6-25.4-37.5,6-23.9,15.6-47,25.8-64.6,6.6-11.3,14.6-22.8,24.6-30.8l-8.9-13.7c-29.4,19-68.2,21.5-100.3,7.2,23.2,14.8,51.8,20.1,78.9,15.8-32,45.9-58.3,132.7-31.2,182.3s98.6,74.4,152.1,55.5C243.7,423.2,260,398.2,252.8,366.3Zm-90.4-33.9c3.7,17.6,10.8,34.3,19.6,49.9-15.4,11.2-30.5,22.9-43.9,36.4-16.5-5.1-32.3-13.7-44.8-25.5l3.9-.6c17.6-2.6,35.1-7.2,52.2-11.7l-6.7-9.6c-8.2-11.4-16.2-23.2-25.2-34.2C131.9,336.5,147.5,334,162.4,332.4ZM73,364.5c-5-12.9-6.7-27.8-6-43.4a31.4,31.4,0,0,0,5.1,5.2c10.2,8.5,23.9,11,39.2,10.9a100.5,100.5,0,0,0,12.1,33.9,123.9,123.9,0,0,0-16.5,6.7,100.9,100.9,0,0,0-18,11A88,88,0,0,1,73,364.5Zm162.1,31.6c-4.9,11.2-15.7,18.6-27,22.8-20.1,7.2-42.1,6.8-62.8,1.8l4.2-1.7c19.5-8.3,37.4-19.7,54.2-32.3l-4-6.4c-10.4-16.3-20.8-32.9-32.6-48.3,23.3-2.1,44.8-1.4,58.2,12.8,6.5,7.2,9.9,16.7,11.8,26.1S238.6,388.3,235.1,396.1Z" fill="url(#linear-gradient-2)"/></svg>