<svg id="Layer_1" data-name="Layer 1" xmlns="http://www.w3.org/2000/svg" width="447.4" height="1149.8" viewBox="0 0 447.4 1149.8"><path d="M438.3,401.5s-107.4-77.4-106.1-94.6,9.3-24.1,7.7-30.2S248.2,94.6,227.8,99.8C254.3,24.7,138.2-12.1,0,3.6V1149.8H313.4C324.3,1013.9,163.5,984,163.5,984c-9.1-46,24.3-40,24.3-40,88,120.2,153.1,1.7,151.6,86.9,91.5-56.4,86.2-146,49.9-209.2-18-31.3,43.1-126,2.5-164.1,31.3-26.3,3-75.4,3-75.4,22.7-19.5,17.9-40.5,17.9-40.5-15.7-8.5-26-56.2-26-56.2C479.5,435.9,438.3,401.5,438.3,401.5Z" fill="#231f20" fill-rule="evenodd"/><path d="M402.3,390.5l-16.3-22" fill="none"/><path d="M328.2,741.2a78.5,78.5,0,0,0-31.4-13.1A76.8,76.8,0,0,1,324,755.2a79.3,79.3,0,0,1,6.8,15.5,75.6,75.6,0,0,1-4,54.3,86.1,86.1,0,0,0-12.7-36.8A88.4,88.4,0,0,0,272,752.3c5.1-7.3,15.8-10.1,23.8-6.2q-23.4-28.1-46.9-56c2.6,2.9,28.3-11.1,34.3-10.8,12,.7,26.4,13.5,34.7,21.2a123.1,123.1,0,0,1,16.7,19.3,110.9,110.9,0,0,1,19.3,51.9A78.3,78.3,0,0,0,328.2,741.2Z" fill="#30bf97"/><path d="M354.1,978c3-14.8-7.4-29.3-19.8-37.8s-27.2-13.2-39.7-21.6A55.9,55.9,0,0,1,279.7,904h0c-4.6-6.9-7.2-14.7-5.8-22.8a61.7,61.7,0,0,0,2.9,32.7c6.8,18.9,22,35,41.3,41-16.3,8.5-37,7.4-52.6-2.1a50.5,50.5,0,0,1-6-4.3c-15.9-13.3-22.8-36.5-16.7-56.4,5-16,17.5-32.5,10.3-47.7-4.7-10-16.2-14.4-25.8-19.7a88.2,88.2,0,0,1-14.3-9.8c-23.7-20.2-37.1-52.6-33.1-83.6a72.7,72.7,0,0,0,32.6,55.5c-8.1-6-16.4-46.5-10.3-54.1,7.6-9.4,19.1,7.8,28.1,17.6a28.7,28.7,0,0,0,5.6,5.2c14.1,8.8,30.5,14.4,42.6,25.7s18.3,26.3,25.4,41c2,4.2,4.1,8.3,6.4,12.2,13.5,23.9,34.3,43.1,47.3,67.2S374,959.1,354.1,978Z" fill="#30bf97"/><path d="M382,624a36.5,36.5,0,0,0-17.9-4.1,32.9,32.9,0,0,0-17.7,5.4c-9.5,6.3-15.1,16.9-23.5,24.6a49,49,0,0,1-58.1,6.2,55.8,55.8,0,0,1-7.8-5.7l1.1-4.3a44,44,0,0,0,16.8,3.6c13.2.4,26.7-5,34.9-15.6a41.1,41.1,0,0,1-17.2,4.2,42,42,0,0,1-25.2-7.5c9.4,3.9,20.5.1,28.4-6.4,13.8-11.5,25.7-46.1,47.3-44.8,6.8.5,12.6,5.2,17.7,11.6a113,113,0,0,1,8.1,11.9C373.7,611.1,377.9,619.2,382,624Z" fill="#30bf97"/></svg>