<svg width="0" height="0" class="hidden">
  <symbol xmlns="http://www.w3.org/2000/svg" viewBox="0 0 555.4 726.3" id="writing">
    <path fill="#30bf97" d="M497.1 494.4c-42.8 31-109.8 28.4-143.2-12.6-29.3-36.1-26.4-87.6-26.3-134.1s-8.3-100.6-48.6-123.9-88.1-5.2-133.2-7.1c-59.4-2.5-115.4-43.3-136-99.1C-6 74.7-1.6 35.2 15.3.9h332.5c13.2 29.6 31.1 57.3 50.5 83.4 31.7 42.3 67.8 81.2 97.9 124.6s54.5 92.6 58.7 145.3-15 109.2-57.8 140.2z"></path>
    <path fill="#012623" d="M114.2.9h28.1v313.72h-28.1zm41.8 0h28.1v313.72H156zm41.8 0h28.1v313.72h-28.1zm-11.9 437.5l-15.8 40.9-15.9-40.9h31.7zm40-114.1l-40 103.1h-31.7l-40-103.1h111.7zm61.6 18.6c-.4-13.5-.7-27-.6-40.7.5-96.3 15.7-194.8 61.3-279.2 4.2-7.8 8.7-15.5 13.4-23h-55.7c-2.1 26.6-4.3 53.3-6.4 79.9l-2.1 26.9c-.6-2.5-1.1-5.1-1.7-7.7-4.7-22.3-9.5-44.5-14.2-66.8 3.2 55.3-19.9 108.6-25.5 163.7-2.4 23.3-7.4 81.7 16.4 100.5-3.6 101.4 8.5 203.9 58.3 291.7-37.2-76.2-47-160.7-43.2-245.3z"></path>
    <path fill="#012623" d="M353 205.3c19.6-11.6 31.7-34.5 30.9-57.1a14.2 14.2 0 0 1-9 11.4c-6.9 2.4-15.4-1.8-17.7-8.7s.4-12.8 2.7-18.7Q380.2 81.1 400.2 30c-2.8 5.8-5.9 12-11.3 15.6s-13.9 3.6-17.5-1.9c-4.7-7.3 2.2-16.4 7.9-23A84.3 84.3 0 0 0 392.4 0H364a415.7 415.7 0 0 0-24.6 55.1c-8.1 28.9-16.1 57.9-22.8 87.1-8.5 50.6-9.9 102.7-6.7 154.5 10.5-6.1 19.6-16.1 26.9-24.7a151.3 151.3 0 0 0 17.7-25.8c4.4-8 6.6-22 12-28.8-3.6 4.5-7.5 9.3-13 11.3s-12.8 0-14.5-5.5c-2.5-7.9 6.9-13.7 14-17.9zm170 464.8a87.6 87.6 0 0 0-48 56.1v-56.1a9.4 9.4 0 1 0-6.5 0v56.1a87.6 87.6 0 0 0-48-56.1 87.4 87.4 0 0 0 35.3-70.2c0-30.8-3.1-58-17.5-73.6V1.9h66.9v524.4c-14.4 15.6-17.5 42.8-17.5 73.6a87.4 87.4 0 0 0 35.3 70.2z"></path>
  </symbol>
  <symbol xmlns="http://www.w3.org/2000/svg" viewBox="0 0 1150.9 614.1" id="map">
    <path fill="none" stroke="#012623" stroke-dasharray="56" stroke-miterlimit="10" stroke-width="22" d="M1076 261c-23-46-47-95-90-125s-107-34-141 5c-26 31-25 76-13 114s32 74 42 112 5 85-25 111c-35 29-90 20-124-9s-54-71-71-113-33-85-65-117-84-48-123-26c-43 24-52 83-43 132s31 94 35 143-23 106-71 114c-45 8-85-31-105-72s-26-88-49-127-72-69-113-50"></path>
    <path id="mars" d="M1017 110a79 79 0 0 1 111 111l-55 55-56-55a78 78 0 0 1 0-111zm56 97a42 42 0 1 0-42-42 41 41 0 0 0 42 42z"></path>
    <path id="canada" d="M721 299a79 79 0 1 1 111 111l-56 56-55-56a79 79 0 0 1 0-111zm55 97a42 42 0 1 0-41-41 41 41 0 0 0 41 41z"></path>
    <path id="us" d="M439 23a79 79 0 1 1 111 111l-55 56-56-56a79 79 0 0 1 0-111zm56 97a42 42 0 1 0-42-41 41 41 0 0 0 42 41z"></path>
    <path id="armenia" d="M319 405a79 79 0 0 1 111 111l-55 55-56-55a78 78 0 0 1 0-111zm56 97a42 42 0 1 0-42-42 41 41 0 0 0 42 42z"></path>
    <path id="syria" d="M23 188a79 79 0 0 1 111 111l-55 56-56-56a78 78 0 0 1 0-111zm56 97a42 42 0 1 0-42-41 41 41 0 0 0 42 41z"></path>
  </symbol>
  <symbol xmlns="http://www.w3.org/2000/svg" viewBox="0 0 174 109" id="be">
    <path d="M0 0v107h51.9a54.3 54.3 0 0 0 14-1.8A37.2 37.2 0 0 0 78 99.7a27.5 27.5 0 0 0 8.5-9.7 29.6 29.6 0 0 0 3.1-14.1c0-6.6-1.6-12.4-4.8-17.1s-8.1-8.1-14.7-10A27 27 0 0 0 81 40a23.9 23.9 0 0 0 3.7-13.5 29.4 29.4 0 0 0-2.5-12.6 20.5 20.5 0 0 0-7-8.1 27.6 27.6 0 0 0-10.8-4.4A60 60 0 0 0 50.5 0zm113.6 7.2v10.5H157V7.2zm-90 11h22a30.8 30.8 0 0 1 6.1.6 14.6 14.6 0 0 1 5.2 1.8 10.1 10.1 0 0 1 3.6 3.8 12.3 12.3 0 0 1 1.3 6.1c0 4.5-1.3 7.8-4 9.7a17.3 17.3 0 0 1-10.4 3H23.6zm112.7 9.1a40.4 40.4 0 0 0-16.2 3.2 39.7 39.7 0 0 0-12.6 8.6 40.2 40.2 0 0 0-8.1 13 45.2 45.2 0 0 0-2.8 16.2 48.4 48.4 0 0 0 2.7 16.5 38.8 38.8 0 0 0 7.9 13 36 36 0 0 0 12.5 8.3 46.3 46.3 0 0 0 16.6 2.9c8.7 0 16.2-2 22.4-6s10.8-10.7 13.8-20h-18.7c-.8 2.4-2.6 4.7-5.7 6.9a19.3 19.3 0 0 1-11.1 3.2c-6 0-10.6-1.6-13.8-4.7s-5.3-8.9-5.3-15h55.9a55.1 55.1 0 0 0-1.4-17.3 43.1 43.1 0 0 0-6.8-14.7 34.2 34.2 0 0 0-12.1-10.2 36.6 36.6 0 0 0-17.2-3.9zm-.7 16.1c5.2 0 9.5 1.5 12.1 4.3a21.1 21.1 0 0 1 4.9 12.3h-34.7a28.5 28.5 0 0 1 1-5.1 13.9 13.9 0 0 1 2.9-5.5 16.4 16.4 0 0 1 5.3-4.3 19.5 19.5 0 0 1 8.5-1.7zm-112 15.9h25.6c5.1 0 9.2 1.2 12.3 3.5s4.6 6.3 4.6 11.8a14.3 14.3 0 0 1-1.4 7 11.1 11.1 0 0 1-3.8 4.2 14.7 14.7 0 0 1-5.6 2.3 28.4 28.4 0 0 1-6.6.7H23.6z"></path>
  </symbol>
  <symbol xmlns="http://www.w3.org/2000/svg" viewBox="0 0 145.1 144.2" id="fb">
    <path d="M145.1 72.5a72.6 72.6 0 1 0-83.9 71.7V93.5H42.8v-21h18.4V56.6c0-18.2 10.8-28.3 27.4-28.3a105.4 105.4 0 0 1 16.2 1.5v17.8h-9.1c-9 0-11.8 5.6-11.8 11.3v13.6H104l-3.2 21H83.9v50.7a72.7 72.7 0 0 0 61.2-71.7z"></path>
  </symbol>
  <symbol xmlns="http://www.w3.org/2000/svg" viewBox="0 0 144.2 144.2" id="ig">
    <path d="M72.1 0c-19.6 0-22 .1-29.7.4S29.5 2 24.9 3.8a34.4 34.4 0 0 0-12.8 8.3 34.4 34.4 0 0 0-8.3 12.8C2 29.5.8 34.7.4 42.4S0 52.5 0 72.1s.1 22 .4 29.7 1.6 12.9 3.4 17.5a35.2 35.2 0 0 0 8.3 12.8 34.4 34.4 0 0 0 12.8 8.3 51.3 51.3 0 0 0 17.5 3.3c7.7.4 10.1.5 29.7.5s22-.1 29.7-.5a51.3 51.3 0 0 0 17.5-3.3 35.2 35.2 0 0 0 12.8-8.3 34.4 34.4 0 0 0 8.3-12.8 51.3 51.3 0 0 0 3.3-17.5c.4-7.7.5-10.1.5-29.7s-.1-22-.5-29.7a51.3 51.3 0 0 0-3.3-17.5 34.4 34.4 0 0 0-8.3-12.8 34.4 34.4 0 0 0-12.8-8.3c-4.6-1.8-9.8-3-17.5-3.4S91.7 0 72.1 0zm0 13c19.2 0 21.5.1 29.1.4s10.9 1.5 13.4 2.5a22.1 22.1 0 0 1 8.3 5.4 22.1 22.1 0 0 1 5.4 8.3c1 2.5 2.2 6.3 2.5 13.4s.4 9.8.4 29.1-.1 21.5-.5 29.1-1.5 10.9-2.5 13.4a23.9 23.9 0 0 1-13.7 13.7c-2.5 1-6.4 2.2-13.4 2.5s-9.9.4-29.2.4-21.5-.1-29.2-.5-10.9-1.5-13.4-2.5a22.1 22.1 0 0 1-8.3-5.4 22.1 22.1 0 0 1-5.4-8.3c-1-2.5-2.2-6.4-2.5-13.4s-.4-9.9-.4-29.1.1-21.5.4-29.2 1.5-10.9 2.5-13.4a22.1 22.1 0 0 1 5.4-8.3 21 21 0 0 1 8.3-5.4c2.5-1 6.3-2.2 13.3-2.5s9.9-.4 29.2-.4zm0 22.1a37 37 0 1 0 37 37 37 37 0 0 0-37-37zm0 61a24 24 0 1 1 24-24 23.9 23.9 0 0 1-24 24zm47.1-62.5a8.7 8.7 0 1 1-8.6-8.6 8.7 8.7 0 0 1 8.6 8.6z"></path>
  </symbol>
  <symbol xmlns="http://www.w3.org/2000/svg" viewBox="0 0 299.6 272.8" id="hamburger">
    <rect width="299.6" height="53.59" fill="#012623" rx="26.8"></rect>
    <rect width="299.6" height="53.59" y="109.6" fill="#012623" rx="26.8"></rect>
    <rect width="299.6" height="53.59" y="219.2" fill="#012623" rx="26.8"></rect>
  </symbol>
  <symbol xmlns="http://www.w3.org/2000/svg" viewBox="0 0 663.4 549.1" id="trees">
    <path fill="#30bf97" d="M113 0h40l-13 490h-14L113 0z"></path>
    <path fill="#30bf97" d="M265 193l-132-36L0 193v6l133 36 132-36v-6z"></path>
    <path fill="#30bf97" d="M249 232l-116-36-117 36v6l117 36 116-36v-6z"></path>
    <path fill="#30bf97" d="M232 271l-99-30-100 30v5l100 30 99-30v-5z"></path>
    <path fill="#30bf97" d="M217 308l-84-31-84 31v5l84 30 84-30v-5z"></path>
    <path fill="#30bf97" d="M197 344l-64-30-65 30v5l65 31 64-31v-5z"></path>
    <path fill="#30bf97" d="M182 381l-49-30-50 30v5l50 31 49-31v-5z"></path>
    <path fill="#30bf97" d="M182 418l-49-31-50 31v5l50 30 49-30v-5z"></path>
    <path fill="#30bf97" d="M166 455l-33-31-34 31v4l34 31 33-31v-5z"></path>
    <path fill="#30bf97" d="M166 491l-33-30-34 30v5l34 31 33-31v-5z"></path>
    <path fill="#30bf97" d="M161 529l-28-17-28 17v3l28 17 28-17v-3z"></path>
    <path fill="#012623" d="M246 0h39l-13 490h-13L246 0z"></path>
    <path fill="#012623" d="M398 193l-133-36-132 36v6l132 36 133-36v-6z"></path>
    <path fill="#012623" d="M382 232l-117-36-116 36v6l116 36 117-36v-6z"></path>
    <path fill="#012623" d="M365 271l-100-30-99 30v5l99 30 100-30v-5z"></path>
    <path fill="#012623" d="M350 308l-85-31-84 31v5l84 30 84-30v-5z"></path>
    <path fill="#012623" d="M330 344l-65-30-64 30v5l64 31 65-31v-5z"></path>
    <path fill="#012623" d="M315 381l-50-30-49 30v5l49 31 50-31v-5z"></path>
    <path fill="#012623" d="M315 418l-50-31-49 31v5l49 30 50-30v-5z"></path>
    <path fill="#012623" d="M299 455l-34-31-33 31v4l33 31 34-31v-5z"></path>
    <path fill="#012623" d="M299 491l-34-30-33 30v5l33 31 34-31v-5z"></path>
    <path fill="#012623" d="M294 529l-29-17-28 17v3l28 17 28-17v-3z"></path>
    <path fill="#30bf97" d="M378 0h40l-13 490h-14L378 0z"></path>
    <path fill="#30bf97" d="M531 193l-133-36-133 36v6l133 36 133-36v-6z"></path>
    <path fill="#30bf97" d="M515 232l-117-36-117 36v6l117 36 117-36v-6z"></path>
    <path fill="#30bf97" d="M497 271l-99-30-99 30v5l99 30 99-30v-5z"></path>
    <path fill="#30bf97" d="M482 308l-84-31-84 31v5l84 30 84-30v-5z"></path>
    <path fill="#30bf97" d="M463 344l-65-30-65 30v5l65 31 65-31v-5z"></path>
    <path fill="#30bf97" d="M448 381l-50-30-49 30v5l49 31 50-31v-5z"></path>
    <path fill="#30bf97" d="M448 418l-50-31-49 31v5l49 30 50-30v-5z"></path>
    <path fill="#30bf97" d="M432 455l-34-31-34 31v4l34 31 34-31v-5z"></path>
    <path fill="#30bf97" d="M432 491l-34-30-34 30v5l34 31 34-31v-5z"></path>
    <path fill="#30bf97" d="M426 529l-28-17-28 17v3l28 17 28-17v-3z"></path>
    <path fill="#012623" d="M511 0h40l-13 490h-14L511 0z"></path>
    <path fill="#012623" d="M663 193l-132-36-133 36v6l133 36 132-36v-6z"></path>
    <path fill="#012623" d="M648 232l-117-36-117 36v6l117 36 116-36v-6z"></path>
    <path fill="#012623" d="M630 271l-99-30-100 30v5l100 30 99-30v-5z"></path>
    <path fill="#012623" d="M615 308l-84-31-84 31v5l84 30 84-30v-5z"></path>
    <path fill="#012623" d="M595 344l-64-30-65 30v5l65 31 64-31v-5z"></path>
    <path fill="#012623" d="M580 381l-49-30-50 30v5l50 31 49-31v-5z"></path>
    <path fill="#012623" d="M580 418l-49-31-50 31v5l50 30 49-30v-5z"></path>
    <path fill="#012623" d="M564 455l-33-31-34 31v4l34 31 33-31v-5z"></path>
    <path fill="#012623" d="M564 491l-33-30-34 30v5l34 31 33-31v-5z"></path>
    <path fill="#012623" d="M559 529l-28-17-28 17v3l28 17 28-17v-3z"></path>
  </symbol>
</svg>
