<svg xmlns="http://www.w3.org/2000/svg" width="663.4" height="549.1"><path fill="#30bf97" d="M113 0h40l-13 490h-14L113 0z"/><path fill="#30bf97" d="M265 193l-132-36L0 193v6l133 36 132-36v-6z"/><path fill="#30bf97" d="M249 232l-116-36-117 36v6l117 36 116-36v-6z"/><path fill="#30bf97" d="M232 271l-99-30-100 30v5l100 30 99-30v-5z"/><path fill="#30bf97" d="M217 308l-84-31-84 31v5l84 30 84-30v-5z"/><path fill="#30bf97" d="M197 344l-64-30-65 30v5l65 31 64-31v-5z"/><path fill="#30bf97" d="M182 381l-49-30-50 30v5l50 31 49-31v-5z"/><path fill="#30bf97" d="M182 418l-49-31-50 31v5l50 30 49-30v-5z"/><path fill="#30bf97" d="M166 455l-33-31-34 31v4l34 31 33-31v-5z"/><path fill="#30bf97" d="M166 491l-33-30-34 30v5l34 31 33-31v-5z"/><path fill="#30bf97" d="M161 529l-28-17-28 17v3l28 17 28-17v-3z"/><path fill="#012623" d="M246 0h39l-13 490h-13L246 0z"/><path fill="#012623" d="M398 193l-133-36-132 36v6l132 36 133-36v-6z"/><path fill="#012623" d="M382 232l-117-36-116 36v6l116 36 117-36v-6z"/><path fill="#012623" d="M365 271l-100-30-99 30v5l99 30 100-30v-5z"/><path fill="#012623" d="M350 308l-85-31-84 31v5l84 30 84-30v-5z"/><path fill="#012623" d="M330 344l-65-30-64 30v5l64 31 65-31v-5z"/><path fill="#012623" d="M315 381l-50-30-49 30v5l49 31 50-31v-5z"/><path fill="#012623" d="M315 418l-50-31-49 31v5l49 30 50-30v-5z"/><path fill="#012623" d="M299 455l-34-31-33 31v4l33 31 34-31v-5z"/><path fill="#012623" d="M299 491l-34-30-33 30v5l33 31 34-31v-5z"/><path fill="#012623" d="M294 529l-29-17-28 17v3l28 17 28-17v-3z"/><path fill="#30bf97" d="M378 0h40l-13 490h-14L378 0z"/><path fill="#30bf97" d="M531 193l-133-36-133 36v6l133 36 133-36v-6z"/><path fill="#30bf97" d="M515 232l-117-36-117 36v6l117 36 117-36v-6z"/><path fill="#30bf97" d="M497 271l-99-30-99 30v5l99 30 99-30v-5z"/><path fill="#30bf97" d="M482 308l-84-31-84 31v5l84 30 84-30v-5z"/><path fill="#30bf97" d="M463 344l-65-30-65 30v5l65 31 65-31v-5z"/><path fill="#30bf97" d="M448 381l-50-30-49 30v5l49 31 50-31v-5z"/><path fill="#30bf97" d="M448 418l-50-31-49 31v5l49 30 50-30v-5z"/><path fill="#30bf97" d="M432 455l-34-31-34 31v4l34 31 34-31v-5z"/><path fill="#30bf97" d="M432 491l-34-30-34 30v5l34 31 34-31v-5z"/><path fill="#30bf97" d="M426 529l-28-17-28 17v3l28 17 28-17v-3z"/><path fill="#012623" d="M511 0h40l-13 490h-14L511 0z"/><path fill="#012623" d="M663 193l-132-36-133 36v6l133 36 132-36v-6z"/><path fill="#012623" d="M648 232l-117-36-117 36v6l117 36 116-36v-6z"/><path fill="#012623" d="M630 271l-99-30-100 30v5l100 30 99-30v-5z"/><path fill="#012623" d="M615 308l-84-31-84 31v5l84 30 84-30v-5z"/><path fill="#012623" d="M595 344l-64-30-65 30v5l65 31 64-31v-5z"/><path fill="#012623" d="M580 381l-49-30-50 30v5l50 31 49-31v-5z"/><path fill="#012623" d="M580 418l-49-31-50 31v5l50 30 49-30v-5z"/><path fill="#012623" d="M564 455l-33-31-34 31v4l34 31 33-31v-5z"/><path fill="#012623" d="M564 491l-33-30-34 30v5l34 31 33-31v-5z"/><path fill="#012623" d="M559 529l-28-17-28 17v3l28 17 28-17v-3z"/></svg>