<svg xmlns="http://www.w3.org/2000/svg" width="555.4" height="726.3" viewBox="0 0 555.4 726.3"><path fill="#30bf97" d="M497.1 494.4c-42.8 31-109.8 28.4-143.2-12.6-29.3-36.1-26.4-87.6-26.3-134.1s-8.3-100.6-48.6-123.9-88.1-5.2-133.2-7.1c-59.4-2.5-115.4-43.3-136-99.1C-6 74.7-1.6 35.2 15.3.9h332.5c13.2 29.6 31.1 57.3 50.5 83.4 31.7 42.3 67.8 81.2 97.9 124.6s54.5 92.6 58.7 145.3-15 109.2-57.8 140.2z"/><path fill="#012623" d="M114.2.9h28.1v313.72h-28.1zm41.8 0h28.1v313.72H156zm41.8 0h28.1v313.72h-28.1zm-11.9 437.5l-15.8 40.9-15.9-40.9h31.7zm40-114.1l-40 103.1h-31.7l-40-103.1h111.7zm61.6 18.6c-.4-13.5-.7-27-.6-40.7.5-96.3 15.7-194.8 61.3-279.2 4.2-7.8 8.7-15.5 13.4-23h-55.7c-2.1 26.6-4.3 53.3-6.4 79.9l-2.1 26.9c-.6-2.5-1.1-5.1-1.7-7.7-4.7-22.3-9.5-44.5-14.2-66.8 3.2 55.3-19.9 108.6-25.5 163.7-2.4 23.3-7.4 81.7 16.4 100.5-3.6 101.4 8.5 203.9 58.3 291.7-37.2-76.2-47-160.7-43.2-245.3z"/><path fill="#012623" d="M353 205.3c19.6-11.6 31.7-34.5 30.9-57.1a14.2 14.2 0 0 1-9 11.4c-6.9 2.4-15.4-1.8-17.7-8.7s.4-12.8 2.7-18.7Q380.2 81.1 400.2 30c-2.8 5.8-5.9 12-11.3 15.6s-13.9 3.6-17.5-1.9c-4.7-7.3 2.2-16.4 7.9-23A84.3 84.3 0 0 0 392.4 0H364a415.7 415.7 0 0 0-24.6 55.1c-8.1 28.9-16.1 57.9-22.8 87.1-8.5 50.6-9.9 102.7-6.7 154.5 10.5-6.1 19.6-16.1 26.9-24.7a151.3 151.3 0 0 0 17.7-25.8c4.4-8 6.6-22 12-28.8-3.6 4.5-7.5 9.3-13 11.3s-12.8 0-14.5-5.5c-2.5-7.9 6.9-13.7 14-17.9zm170 464.8a87.6 87.6 0 0 0-48 56.1v-56.1a9.4 9.4 0 1 0-6.5 0v56.1a87.6 87.6 0 0 0-48-56.1 87.4 87.4 0 0 0 35.3-70.2c0-30.8-3.1-58-17.5-73.6V1.9h66.9v524.4c-14.4 15.6-17.5 42.8-17.5 73.6a87.4 87.4 0 0 0 35.3 70.2z"/></svg>